<svg viewBox="0 0 1000 700" xmlns="http://www.w3.org/2000/svg" font-family="Arial, sans-serif">
  <rect width="1000" height="700" fill="#f2f2f2"/>
  <text x="500" y="30" text-anchor="middle" font-size="18" fill="#555" font-weight="bold">WIREFRAME — Módulo de Inventario (Productos)</text>

  <!-- Sidebar -->
  <rect x="20" y="50" width="180" height="630" fill="#ffffff" stroke="#999" stroke-width="2"/>
  <circle cx="45" cy="80" r="8" fill="none" stroke="#999" stroke-width="2"/>
  <line x1="60" y1="82" x2="140" y2="82" stroke="#333" stroke-width="3"/>
  <line x1="35" y1="100" x2="185" y2="100" stroke="#eee"/>

  <rect x="35" y="120" width="150" height="28" rx="4" fill="#eee"/>
  <line x1="45" y1="134" x2="110" y2="134" stroke="#aaa" stroke-width="3"/>

  <rect x="35" y="156" width="150" height="28" rx="4" fill="#333"/>
  <line x1="45" y1="170" x2="110" y2="170" stroke="#fff" stroke-width="3"/>

  <rect x="35" y="192" width="150" height="28" rx="4" fill="#eee"/>
  <line x1="45" y1="206" x2="110" y2="206" stroke="#aaa" stroke-width="3"/>

  <line x1="35" y1="630" x2="185" y2="630" stroke="#eee"/>
  <line x1="45" y1="650" x2="90" y2="650" stroke="#999" stroke-width="3"/>

  <!-- Header -->
  <line x1="230" y1="70" x2="320" y2="70" stroke="#ccc" stroke-width="2"/>
  <line x1="230" y1="95" x2="380" y2="95" stroke="#333" stroke-width="4"/>

  <!-- Form card -->
  <rect x="230" y="120" width="300" height="460" rx="6" fill="#ffffff" stroke="#999" stroke-width="2"/>
  <line x1="250" y1="148" x2="410" y2="148" stroke="#333" stroke-width="3"/>
  <line x1="240" y1="162" x2="520" y2="162" stroke="#eee"/>

  <line x1="250" y1="182" x2="330" y2="182" stroke="#999" stroke-width="2"/>
  <rect x="250" y="192" width="260" height="28" rx="4" fill="#eee" stroke="#bbb"/>

  <line x1="250" y1="232" x2="330" y2="232" stroke="#999" stroke-width="2"/>
  <rect x="250" y="242" width="260" height="28" rx="4" fill="#eee" stroke="#bbb"/>

  <line x1="250" y1="282" x2="330" y2="282" stroke="#999" stroke-width="2"/>
  <rect x="250" y="292" width="260" height="28" rx="4" fill="#eee" stroke="#bbb"/>

  <!-- Receta dinámica -->
  <line x1="250" y1="335" x2="510" y2="335" stroke="#eee" stroke-dasharray="3,3"/>
  <line x1="250" y1="349" x2="360" y2="349" stroke="#999" stroke-width="2"/>

  <rect x="250" y="362" width="150" height="26" rx="4" fill="#eee" stroke="#bbb"/>
  <text x="258" y="379" font-size="9" fill="#999">Ingrediente ▾</text>
  <rect x="410" y="362" width="70" height="26" rx="4" fill="#eee" stroke="#bbb"/>
  <text x="488" y="380" font-size="12" fill="#999">✕</text>

  <rect x="250" y="396" width="150" height="26" rx="4" fill="#f5f5f3" stroke="#ddd" stroke-dasharray="2,2"/>
  <rect x="410" y="396" width="70" height="26" rx="4" fill="#f5f5f3" stroke="#ddd" stroke-dasharray="2,2"/>

  <rect x="250" y="432" width="260" height="30" rx="4" fill="#333"/>
  <line x1="330" y1="447" x2="430" y2="447" stroke="#fff" stroke-width="3"/>

  <rect x="250" y="475" width="260" height="34" rx="4" fill="#1a1a1a"/>
  <line x1="340" y1="492" x2="420" y2="492" stroke="#fff" stroke-width="3"/>

  <!-- Table card -->
  <rect x="550" y="120" width="430" height="560" rx="6" fill="#ffffff" stroke="#999" stroke-width="2"/>
  <line x1="570" y1="148" x2="740" y2="148" stroke="#333" stroke-width="3"/>
  <rect x="760" y="135" width="200" height="24" rx="4" fill="#eee" stroke="#bbb"/>
  <line x1="560" y1="165" x2="970" y2="165" stroke="#eee"/>

  <rect x="560" y="180" width="410" height="26" fill="#f5f5f3"/>
  <line x1="570" y1="194" x2="610" y2="194" stroke="#999" stroke-width="2"/>
  <line x1="650" y1="194" x2="700" y2="194" stroke="#999" stroke-width="2"/>
  <line x1="740" y1="194" x2="800" y2="194" stroke="#999" stroke-width="2"/>
  <line x1="850" y1="194" x2="880" y2="194" stroke="#999" stroke-width="2"/>

  <g>
    <line x1="560" y1="230" x2="970" y2="230" stroke="#eee"/>
    <line x1="570" y1="222" x2="620" y2="222" stroke="#bbb" stroke-width="2"/>
    <line x1="650" y1="222" x2="710" y2="222" stroke="#bbb" stroke-width="2"/>
    <line x1="740" y1="222" x2="810" y2="222" stroke="#bbb" stroke-width="2"/>
    <line x1="850" y1="222" x2="875" y2="222" stroke="#bbb" stroke-width="2"/>
    <rect x="895" y="210" width="18" height="18" rx="3" fill="#eee" stroke="#bbb"/>
    <rect x="920" y="210" width="18" height="18" rx="3" fill="#eee" stroke="#bbb"/>

    <line x1="560" y1="264" x2="970" y2="264" stroke="#eee"/>
    <line x1="570" y1="256" x2="620" y2="256" stroke="#bbb" stroke-width="2"/>
    <line x1="650" y1="256" x2="710" y2="256" stroke="#bbb" stroke-width="2"/>
    <line x1="740" y1="256" x2="810" y2="256" stroke="#bbb" stroke-width="2"/>
    <line x1="850" y1="256" x2="875" y2="256" stroke="#bbb" stroke-width="2"/>
    <rect x="895" y="244" width="18" height="18" rx="3" fill="#eee" stroke="#bbb"/>
    <rect x="920" y="244" width="18" height="18" rx="3" fill="#ddd" stroke="#bbb"/>
    <text x="922" y="253" font-size="9" fill="#aaa">🔒</text>
  </g>

  <text x="765" y="300" font-size="9" fill="#888" font-style="italic">↑ stock bloqueado si el producto tiene receta</text>

  <text x="500" y="695" text-anchor="middle" font-size="11" fill="#888">Modal de edición: mismo layout; campo Stock deshabilitado para productos con receta</text>
</svg>
