<svg viewBox="0 0 1000 650" xmlns="http://www.w3.org/2000/svg" font-family="Arial, sans-serif">
  <rect width="1000" height="650" fill="#f2f2f2"/>
  <text x="500" y="30" text-anchor="middle" font-size="18" fill="#555" font-weight="bold">WIREFRAME — Módulo de Usuarios</text>

  <!-- Sidebar -->
  <rect x="20" y="50" width="180" height="580" fill="#ffffff" stroke="#999" stroke-width="2"/>
  <circle cx="45" cy="80" r="8" fill="none" stroke="#999" stroke-width="2"/>
  <line x1="60" y1="82" x2="140" y2="82" stroke="#333" stroke-width="3"/>
  <line x1="35" y1="100" x2="185" y2="100" stroke="#eee"/>

  <rect x="35" y="120" width="150" height="28" rx="4" fill="#333"/>
  <line x1="45" y1="134" x2="110" y2="134" stroke="#fff" stroke-width="3"/>

  <rect x="35" y="156" width="150" height="28" rx="4" fill="#eee"/>
  <line x1="45" y1="170" x2="110" y2="170" stroke="#aaa" stroke-width="3"/>

  <rect x="35" y="192" width="150" height="28" rx="4" fill="#eee"/>
  <line x1="45" y1="206" x2="110" y2="206" stroke="#aaa" stroke-width="3"/>

  <line x1="35" y1="580" x2="185" y2="580" stroke="#eee"/>
  <line x1="45" y1="600" x2="90" y2="600" stroke="#999" stroke-width="3"/>

  <!-- Header -->
  <line x1="230" y1="70" x2="320" y2="70" stroke="#ccc" stroke-width="2"/>
  <line x1="230" y1="95" x2="380" y2="95" stroke="#333" stroke-width="4"/>

  <!-- Form card -->
  <rect x="230" y="120" width="300" height="330" rx="6" fill="#ffffff" stroke="#999" stroke-width="2"/>
  <line x1="250" y1="148" x2="400" y2="148" stroke="#333" stroke-width="3"/>
  <line x1="240" y1="162" x2="520" y2="162" stroke="#eee"/>

  <line x1="250" y1="182" x2="380" y2="182" stroke="#999" stroke-width="2"/>
  <rect x="250" y="192" width="260" height="28" rx="4" fill="#eee" stroke="#bbb"/>

  <line x1="250" y1="232" x2="380" y2="232" stroke="#999" stroke-width="2"/>
  <rect x="250" y="242" width="260" height="28" rx="4" fill="#eee" stroke="#bbb"/>

  <line x1="250" y1="282" x2="380" y2="282" stroke="#999" stroke-width="2"/>
  <rect x="250" y="292" width="260" height="28" rx="4" fill="#eee" stroke="#bbb"/>

  <line x1="250" y1="332" x2="380" y2="332" stroke="#999" stroke-width="2"/>
  <rect x="250" y="342" width="260" height="28" rx="4" fill="#eee" stroke="#bbb"/>

  <line x1="250" y1="382" x2="380" y2="382" stroke="#999" stroke-width="2"/>
  <rect x="250" y="392" width="260" height="28" rx="4" fill="#eee" stroke="#bbb"/>
  <text x="490" y="411" font-size="10" fill="#999">▾</text>

  <!-- Table card -->
  <rect x="550" y="120" width="430" height="500" rx="6" fill="#ffffff" stroke="#999" stroke-width="2"/>
  <line x1="570" y1="148" x2="720" y2="148" stroke="#333" stroke-width="3"/>
  <rect x="760" y="135" width="200" height="24" rx="4" fill="#eee" stroke="#bbb"/>
  <line x1="560" y1="165" x2="970" y2="165" stroke="#eee"/>

  <rect x="560" y="180" width="410" height="26" fill="#f5f5f3"/>
  <line x1="570" y1="194" x2="620" y2="194" stroke="#999" stroke-width="2"/>
  <line x1="700" y1="194" x2="750" y2="194" stroke="#999" stroke-width="2"/>
  <line x1="830" y1="194" x2="860" y2="194" stroke="#999" stroke-width="2"/>
  <line x1="900" y1="194" x2="950" y2="194" stroke="#999" stroke-width="2"/>

  <g>
    <line x1="560" y1="230" x2="970" y2="230" stroke="#eee"/>
    <line x1="570" y1="222" x2="640" y2="222" stroke="#bbb" stroke-width="2"/>
    <line x1="700" y1="222" x2="770" y2="222" stroke="#bbb" stroke-width="2"/>
    <line x1="830" y1="222" x2="870" y2="222" stroke="#bbb" stroke-width="2"/>
    <rect x="895" y="210" width="18" height="18" rx="3" fill="#eee" stroke="#bbb"/>
    <rect x="920" y="210" width="18" height="18" rx="3" fill="#eee" stroke="#bbb"/>

    <line x1="560" y1="264" x2="970" y2="264" stroke="#eee"/>
    <line x1="570" y1="256" x2="640" y2="256" stroke="#bbb" stroke-width="2"/>
    <line x1="700" y1="256" x2="770" y2="256" stroke="#bbb" stroke-width="2"/>
    <line x1="830" y1="256" x2="870" y2="256" stroke="#bbb" stroke-width="2"/>
    <rect x="895" y="244" width="18" height="18" rx="3" fill="#eee" stroke="#bbb"/>
    <rect x="920" y="244" width="18" height="18" rx="3" fill="#eee" stroke="#bbb"/>

    <line x1="560" y1="298" x2="970" y2="298" stroke="#eee"/>
    <line x1="570" y1="290" x2="640" y2="290" stroke="#bbb" stroke-width="2"/>
    <line x1="700" y1="290" x2="770" y2="290" stroke="#bbb" stroke-width="2"/>
    <line x1="830" y1="290" x2="870" y2="290" stroke="#bbb" stroke-width="2"/>
    <rect x="895" y="278" width="18" height="18" rx="3" fill="#eee" stroke="#bbb"/>
    <rect x="920" y="278" width="18" height="18" rx="3" fill="#eee" stroke="#bbb"/>
  </g>
</svg>
