<svg viewBox="0 0 1000 700" xmlns="http://www.w3.org/2000/svg" font-family="Arial, sans-serif">
  <rect width="1000" height="700" fill="#f2f2f2"/>
  <text x="500" y="30" text-anchor="middle" font-size="18" fill="#555" font-weight="bold">WIREFRAME — Módulo de Producción</text>

  <!-- Sidebar -->
  <rect x="20" y="50" width="180" height="630" fill="#ffffff" stroke="#999" stroke-width="2"/>
  <circle cx="45" cy="80" r="8" fill="none" stroke="#999" stroke-width="2"/>
  <line x1="60" y1="82" x2="140" y2="82" stroke="#333" stroke-width="3"/>
  <line x1="35" y1="100" x2="185" y2="100" stroke="#eee"/>

  <rect x="35" y="120" width="150" height="28" rx="4" fill="#eee"/>
  <line x1="45" y1="134" x2="110" y2="134" stroke="#aaa" stroke-width="3"/>

  <rect x="35" y="156" width="150" height="28" rx="4" fill="#eee"/>
  <line x1="45" y1="170" x2="110" y2="170" stroke="#aaa" stroke-width="3"/>

  <rect x="35" y="192" width="150" height="28" rx="4" fill="#333"/>
  <line x1="45" y1="206" x2="110" y2="206" stroke="#fff" stroke-width="3"/>

  <line x1="35" y1="630" x2="185" y2="630" stroke="#eee"/>
  <line x1="45" y1="650" x2="90" y2="650" stroke="#999" stroke-width="3"/>

  <!-- Header -->
  <line x1="230" y1="70" x2="340" y2="70" stroke="#ccc" stroke-width="2"/>
  <line x1="230" y1="95" x2="400" y2="95" stroke="#333" stroke-width="4"/>

  <!-- Form card -->
  <rect x="230" y="120" width="300" height="420" rx="6" fill="#ffffff" stroke="#999" stroke-width="2"/>
  <line x1="250" y1="148" x2="400" y2="148" stroke="#333" stroke-width="3"/>
  <line x1="240" y1="162" x2="520" y2="162" stroke="#eee"/>

  <line x1="250" y1="182" x2="370" y2="182" stroke="#999" stroke-width="2"/>
  <rect x="250" y="192" width="260" height="28" rx="4" fill="#eee" stroke="#bbb"/>
  <text x="490" y="211" font-size="10" fill="#999">▾</text>

  <line x1="250" y1="232" x2="380" y2="232" stroke="#999" stroke-width="2"/>
  <rect x="250" y="242" width="260" height="28" rx="4" fill="#eee" stroke="#bbb"/>

  <!-- Vista previa -->
  <rect x="250" y="285" width="260" height="150" rx="4" fill="#fafafa" stroke="#ddd" stroke-dasharray="3,3"/>
  <line x1="262" y1="300" x2="360" y2="300" stroke="#333" stroke-width="2"/>
  <rect x="420" y="294" width="80" height="16" rx="8" fill="#e0e0e0"/>

  <line x1="262" y1="316" x2="500" y2="316" stroke="#eee"/>
  <g>
    <line x1="262" y1="333" x2="320" y2="333" stroke="#999" stroke-width="2"/>
    <line x1="400" y1="333" x2="490" y2="333" stroke="#bbb" stroke-width="2"/>

    <line x1="262" y1="353" x2="320" y2="353" stroke="#999" stroke-width="2"/>
    <line x1="400" y1="353" x2="490" y2="353" stroke="#c0392b" stroke-width="2"/>

    <line x1="262" y1="373" x2="320" y2="373" stroke="#999" stroke-width="2"/>
    <line x1="400" y1="373" x2="490" y2="373" stroke="#c0392b" stroke-width="2"/>
  </g>

  <rect x="250" y="450" width="260" height="34" rx="4" fill="#333"/>
  <line x1="340" y1="467" x2="420" y2="467" stroke="#fff" stroke-width="3"/>
  <text x="380" y="500" text-anchor="middle" font-size="9" fill="#c0392b" font-style="italic">[ deshabilitado si no alcanza stock ]</text>

  <!-- Historial -->
  <rect x="550" y="120" width="430" height="560" rx="6" fill="#ffffff" stroke="#999" stroke-width="2"/>
  <line x1="570" y1="148" x2="760" y2="148" stroke="#333" stroke-width="3"/>
  <line x1="560" y1="165" x2="970" y2="165" stroke="#eee"/>

  <rect x="560" y="180" width="410" height="26" fill="#f5f5f3"/>
  <line x1="570" y1="194" x2="610" y2="194" stroke="#999" stroke-width="2"/>
  <line x1="650" y1="194" x2="720" y2="194" stroke="#999" stroke-width="2"/>
  <line x1="780" y1="194" x2="830" y2="194" stroke="#999" stroke-width="2"/>
  <line x1="880" y1="194" x2="940" y2="194" stroke="#999" stroke-width="2"/>

  <g>
    <line x1="560" y1="230" x2="970" y2="230" stroke="#eee"/>
    <line x1="570" y1="222" x2="590" y2="222" stroke="#bbb" stroke-width="2"/>
    <line x1="650" y1="222" x2="740" y2="222" stroke="#bbb" stroke-width="2"/>
    <line x1="780" y1="222" x2="800" y2="222" stroke="#bbb" stroke-width="2"/>
    <line x1="880" y1="222" x2="950" y2="222" stroke="#bbb" stroke-width="2"/>

    <line x1="560" y1="264" x2="970" y2="264" stroke="#eee"/>
    <line x1="570" y1="256" x2="590" y2="256" stroke="#bbb" stroke-width="2"/>
    <line x1="650" y1="256" x2="740" y2="256" stroke="#bbb" stroke-width="2"/>
    <line x1="780" y1="256" x2="800" y2="256" stroke="#bbb" stroke-width="2"/>
    <line x1="880" y1="256" x2="950" y2="256" stroke="#bbb" stroke-width="2"/>

    <line x1="560" y1="298" x2="970" y2="298" stroke="#eee"/>
    <line x1="570" y1="290" x2="590" y2="290" stroke="#bbb" stroke-width="2"/>
    <line x1="650" y1="290" x2="740" y2="290" stroke="#bbb" stroke-width="2"/>
    <line x1="780" y1="290" x2="800" y2="290" stroke="#bbb" stroke-width="2"/>
    <line x1="880" y1="290" x2="950" y2="290" stroke="#bbb" stroke-width="2"/>
  </g>

  <text x="500" y="695" text-anchor="middle" font-size="11" fill="#888">Código de proceso: consecutivo, inicia en 1. Tabla de solo lectura (sin editar/eliminar).</text>
</svg>
